<mxfile host="app.diagrams.net" modified="2020-10-19T12:53:09.672Z" agent="5.0 (Windows)" etag="CRGnkaKIcUH1cunXmr35" version="13.8.0" type="github">
  <diagram id="YNvZwJrBOYFxlkn6kkAn" name="Page-1">
    <mxGraphModel dx="2312" dy="1514" grid="1" gridSize="10" guides="1" tooltips="1" connect="1" arrows="1" fold="1" page="1" pageScale="1" pageWidth="850" pageHeight="1100" math="0" shadow="0">
      <root>
        <mxCell id="0" />
        <mxCell id="1" parent="0" />
        <mxCell id="6laZq1fDUzcg9IqnlFVi-5" style="edgeStyle=orthogonalEdgeStyle;rounded=0;orthogonalLoop=1;jettySize=auto;html=1;entryX=0.5;entryY=0;entryDx=0;entryDy=0;" edge="1" parent="1" source="6laZq1fDUzcg9IqnlFVi-1" target="6laZq1fDUzcg9IqnlFVi-3">
          <mxGeometry relative="1" as="geometry" />
        </mxCell>
        <mxCell id="6laZq1fDUzcg9IqnlFVi-1" value="" style="ellipse;html=1;shape=startState;fillColor=#000000;strokeColor=#ff0000;" vertex="1" parent="1">
          <mxGeometry x="385" y="50" width="30" height="30" as="geometry" />
        </mxCell>
        <mxCell id="6laZq1fDUzcg9IqnlFVi-11" style="edgeStyle=orthogonalEdgeStyle;rounded=0;orthogonalLoop=1;jettySize=auto;html=1;entryX=0.5;entryY=0;entryDx=0;entryDy=0;exitX=0.75;exitY=1;exitDx=0;exitDy=0;" edge="1" parent="1" source="6laZq1fDUzcg9IqnlFVi-3" target="6laZq1fDUzcg9IqnlFVi-8">
          <mxGeometry relative="1" as="geometry">
            <Array as="points">
              <mxPoint x="430" y="280" />
              <mxPoint x="700" y="280" />
            </Array>
          </mxGeometry>
        </mxCell>
        <mxCell id="6laZq1fDUzcg9IqnlFVi-12" style="edgeStyle=orthogonalEdgeStyle;rounded=0;orthogonalLoop=1;jettySize=auto;html=1;entryX=0.25;entryY=0;entryDx=0;entryDy=0;exitX=0.25;exitY=1;exitDx=0;exitDy=0;" edge="1" parent="1" source="6laZq1fDUzcg9IqnlFVi-3" target="6laZq1fDUzcg9IqnlFVi-8">
          <mxGeometry relative="1" as="geometry">
            <Array as="points">
              <mxPoint x="370" y="360" />
              <mxPoint x="670" y="360" />
            </Array>
          </mxGeometry>
        </mxCell>
        <mxCell id="6laZq1fDUzcg9IqnlFVi-3" value="Vigilando" style="rounded=1;whiteSpace=wrap;html=1;arcSize=16;fontColor=#000000;fillColor=#ffffc0;strokeColor=#ff0000;" vertex="1" parent="1">
          <mxGeometry x="340" y="160" width="120" height="60" as="geometry" />
        </mxCell>
        <mxCell id="6laZq1fDUzcg9IqnlFVi-9" style="edgeStyle=orthogonalEdgeStyle;rounded=0;orthogonalLoop=1;jettySize=auto;html=1;entryX=0;entryY=0.5;entryDx=0;entryDy=0;" edge="1" parent="1" source="6laZq1fDUzcg9IqnlFVi-7" target="6laZq1fDUzcg9IqnlFVi-3">
          <mxGeometry relative="1" as="geometry">
            <Array as="points">
              <mxPoint x="160" y="190" />
            </Array>
          </mxGeometry>
        </mxCell>
        <mxCell id="6laZq1fDUzcg9IqnlFVi-29" style="edgeStyle=orthogonalEdgeStyle;rounded=0;orthogonalLoop=1;jettySize=auto;html=1;" edge="1" parent="1" source="6laZq1fDUzcg9IqnlFVi-7" target="6laZq1fDUzcg9IqnlFVi-28">
          <mxGeometry relative="1" as="geometry" />
        </mxCell>
        <mxCell id="6laZq1fDUzcg9IqnlFVi-7" value="Huyendo" style="rounded=1;whiteSpace=wrap;html=1;arcSize=16;fontColor=#000000;fillColor=#ffffc0;strokeColor=#ff0000;" vertex="1" parent="1">
          <mxGeometry x="100" y="380" width="120" height="60" as="geometry" />
        </mxCell>
        <mxCell id="6laZq1fDUzcg9IqnlFVi-10" style="edgeStyle=orthogonalEdgeStyle;rounded=0;orthogonalLoop=1;jettySize=auto;html=1;entryX=1;entryY=0.5;entryDx=0;entryDy=0;" edge="1" parent="1" source="6laZq1fDUzcg9IqnlFVi-8" target="6laZq1fDUzcg9IqnlFVi-7">
          <mxGeometry relative="1" as="geometry" />
        </mxCell>
        <mxCell id="6laZq1fDUzcg9IqnlFVi-22" style="edgeStyle=orthogonalEdgeStyle;rounded=0;orthogonalLoop=1;jettySize=auto;html=1;entryX=1;entryY=0.5;entryDx=0;entryDy=0;" edge="1" parent="1" source="6laZq1fDUzcg9IqnlFVi-8" target="6laZq1fDUzcg9IqnlFVi-3">
          <mxGeometry relative="1" as="geometry">
            <Array as="points">
              <mxPoint x="730" y="190" />
            </Array>
          </mxGeometry>
        </mxCell>
        <mxCell id="6laZq1fDUzcg9IqnlFVi-8" value="Combatiendo" style="rounded=1;whiteSpace=wrap;html=1;arcSize=16;fontColor=#000000;fillColor=#ffffc0;strokeColor=#ff0000;" vertex="1" parent="1">
          <mxGeometry x="640" y="380" width="120" height="60" as="geometry" />
        </mxCell>
        <mxCell id="6laZq1fDUzcg9IqnlFVi-13" value="&lt;div&gt;Se creó el guardia/&lt;/div&gt;&lt;div&gt;establecer energía al 100%&lt;br&gt;&lt;/div&gt;" style="text;html=1;strokeColor=none;fillColor=none;align=left;verticalAlign=middle;whiteSpace=wrap;rounded=0;" vertex="1" parent="1">
          <mxGeometry x="405" y="100" width="165" height="40" as="geometry" />
        </mxCell>
        <mxCell id="6laZq1fDUzcg9IqnlFVi-14" value="&lt;div&gt;Se detectó un enemigo [enemigo fuera del castillo]/&lt;/div&gt;&lt;div&gt;sacar arco y flechas&lt;br&gt;&lt;/div&gt;" style="text;html=1;strokeColor=none;fillColor=none;align=left;verticalAlign=middle;whiteSpace=wrap;rounded=0;" vertex="1" parent="1">
          <mxGeometry x="440" y="240" width="320" height="40" as="geometry" />
        </mxCell>
        <mxCell id="6laZq1fDUzcg9IqnlFVi-15" value="&lt;div align=&quot;left&quot;&gt;Se detectó un enemigo [enemigo dentro del castillo]/&lt;/div&gt;&lt;div align=&quot;left&quot;&gt;sacar espada&lt;br&gt;&lt;/div&gt;" style="text;html=1;strokeColor=none;fillColor=none;align=right;verticalAlign=middle;whiteSpace=wrap;rounded=0;" vertex="1" parent="1">
          <mxGeometry x="350" y="320" width="320" height="40" as="geometry" />
        </mxCell>
        <mxCell id="6laZq1fDUzcg9IqnlFVi-16" style="edgeStyle=orthogonalEdgeStyle;rounded=0;orthogonalLoop=1;jettySize=auto;html=1;entryX=1;entryY=0.75;entryDx=0;entryDy=0;exitX=1;exitY=0.25;exitDx=0;exitDy=0;" edge="1" parent="1" source="6laZq1fDUzcg9IqnlFVi-8" target="6laZq1fDUzcg9IqnlFVi-8">
          <mxGeometry relative="1" as="geometry">
            <Array as="points">
              <mxPoint x="800" y="395" />
              <mxPoint x="800" y="425" />
            </Array>
          </mxGeometry>
        </mxCell>
        <mxCell id="6laZq1fDUzcg9IqnlFVi-17" value="&lt;div&gt;Se recibió un golpe [energía mayor a 30%]/&lt;/div&gt;&lt;div&gt;reducir energía en 10%&lt;br&gt;&lt;/div&gt;" style="text;html=1;strokeColor=none;fillColor=none;align=left;verticalAlign=middle;whiteSpace=wrap;rounded=0;" vertex="1" parent="1">
          <mxGeometry x="810" y="390" width="320" height="40" as="geometry" />
        </mxCell>
        <mxCell id="6laZq1fDUzcg9IqnlFVi-18" value="&lt;div&gt;Se recibió un golpe [energía igual a 30%]/&lt;/div&gt;&lt;div&gt;reducir energía en 10%, guardar armas, alejarse del enemigo&lt;br&gt;&lt;/div&gt;" style="text;html=1;strokeColor=none;fillColor=none;align=left;verticalAlign=middle;whiteSpace=wrap;rounded=0;" vertex="1" parent="1">
          <mxGeometry x="230" y="390" width="360" height="40" as="geometry" />
        </mxCell>
        <mxCell id="6laZq1fDUzcg9IqnlFVi-23" value="&lt;div&gt;Se derrotó al enemigo/&lt;/div&gt;&lt;div&gt;recuperar 50% de energía&lt;br&gt;&lt;/div&gt;" style="text;html=1;strokeColor=none;fillColor=none;align=left;verticalAlign=middle;whiteSpace=wrap;rounded=0;" vertex="1" parent="1">
          <mxGeometry x="740" y="320" width="320" height="40" as="geometry" />
        </mxCell>
        <mxCell id="6laZq1fDUzcg9IqnlFVi-24" value="&lt;div align=&quot;right&quot;&gt;Se perdió de vista al enemigo&lt;/div&gt;" style="text;html=1;strokeColor=none;fillColor=none;align=right;verticalAlign=middle;whiteSpace=wrap;rounded=0;" vertex="1" parent="1">
          <mxGeometry x="-30" y="270" width="180" height="30" as="geometry" />
        </mxCell>
        <mxCell id="6laZq1fDUzcg9IqnlFVi-25" value="&lt;div&gt;Se recibió un golpe [energía mayor a 30%]/&lt;/div&gt;&lt;div&gt;reducir energía en 10%&lt;br&gt;&lt;/div&gt;" style="text;html=1;strokeColor=none;fillColor=none;align=left;verticalAlign=middle;whiteSpace=wrap;rounded=0;" vertex="1" parent="1">
          <mxGeometry x="810" y="390" width="320" height="40" as="geometry" />
        </mxCell>
        <mxCell id="6laZq1fDUzcg9IqnlFVi-26" value="&lt;div align=&quot;right&quot;&gt;Se recibió un golpe [energía mayor a 10%]/&lt;/div&gt;&lt;div align=&quot;right&quot;&gt;reducir energía en 10%&lt;br&gt;&lt;/div&gt;" style="text;html=1;strokeColor=none;fillColor=none;align=right;verticalAlign=middle;whiteSpace=wrap;rounded=0;" vertex="1" parent="1">
          <mxGeometry x="-270" y="390" width="320" height="40" as="geometry" />
        </mxCell>
        <mxCell id="6laZq1fDUzcg9IqnlFVi-27" style="edgeStyle=orthogonalEdgeStyle;rounded=0;orthogonalLoop=1;jettySize=auto;html=1;exitX=0.003;exitY=0.156;exitDx=0;exitDy=0;exitPerimeter=0;entryX=-0.008;entryY=0.825;entryDx=0;entryDy=0;entryPerimeter=0;" edge="1" parent="1" source="6laZq1fDUzcg9IqnlFVi-7" target="6laZq1fDUzcg9IqnlFVi-7">
          <mxGeometry relative="1" as="geometry">
            <mxPoint x="90" y="460" as="targetPoint" />
            <Array as="points">
              <mxPoint x="60" y="389" />
              <mxPoint x="60" y="430" />
            </Array>
          </mxGeometry>
        </mxCell>
        <mxCell id="6laZq1fDUzcg9IqnlFVi-28" value="" style="ellipse;html=1;shape=endState;fillColor=#000000;strokeColor=#ff0000;" vertex="1" parent="1">
          <mxGeometry x="145" y="520" width="30" height="30" as="geometry" />
        </mxCell>
        <mxCell id="6laZq1fDUzcg9IqnlFVi-30" value="&lt;div align=&quot;left&quot;&gt;Se recibió un golpe [energía igual a 10%]/&lt;/div&gt;&lt;div align=&quot;left&quot;&gt;reducir energía en 10%, morir&lt;br&gt;&lt;/div&gt;" style="text;html=1;strokeColor=none;fillColor=none;align=left;verticalAlign=middle;whiteSpace=wrap;rounded=0;" vertex="1" parent="1">
          <mxGeometry x="175" y="460" width="320" height="40" as="geometry" />
        </mxCell>
      </root>
    </mxGraphModel>
  </diagram>
</mxfile>
